<svg width="417" height="278" viewBox="0 0 417 278" fill="none" xmlns="http://www.w3.org/2000/svg">
<path d="M32.0003 6.10352e-05L384.002 5.96465e-05C401.675 6.04134e-05 416.001 14.3269 416.002 32L416.002 78.1226C416.002 84.5538 414.032 90.8307 410.359 96.1093L409.39 97.5012C402.177 107.866 402.457 121.697 410.084 131.762C413.923 136.829 416.002 143.012 416.002 149.37L416.001 246.001C416.001 263.674 401.675 278.001 384.001 278.001L32.0001 278C14.327 278 0.000202014 263.673 0.00023331 246L0.00042067 149.369C0.000451467 143.011 2.07867 136.828 5.91845 131.761C13.5456 121.696 13.8256 107.865 6.61196 97.5001L5.64328 96.1082C1.96966 90.8296 0.000454041 84.5527 0.000423806 78.1217L0.000273249 32.0002C0.000212992 14.327 14.3271 6.10352e-05 32.0003 6.10352e-05Z" fill="#131313"/>
</svg>
