<svg width="416" height="279" viewBox="0 0 416 279" fill="none" xmlns="http://www.w3.org/2000/svg">
<path d="M31.9999 0.000284459L384 -0.000409899C401.673 -0.000444761 416 14.3265 416 31.9996L416 163.026C416 168.42 414.637 173.725 412.037 178.451L410.141 181.897C404.655 191.868 404.879 204.003 410.727 213.766L411.451 214.975C414.428 219.944 416 225.627 416 231.419L416 246.365C416 264.038 401.673 278.365 384 278.365L32 278.365C14.327 278.365 7.9993e-05 264.038 5.02492e-05 246.365L2.03859e-05 231.419C-9.87808e-06 225.627 1.5721 219.944 4.54867 214.975L5.27282 213.766C11.1213 204.003 11.3444 191.868 5.8587 181.897L3.96279 178.451C1.36312 173.725 -7.3735e-06 168.419 -7.13738e-06 163.026L-1.40101e-06 32.0003C-6.27273e-07 14.3272 14.3268 0.000319321 31.9999 0.000284459Z" fill="url(#paint0_linear_1_266)"/>
<defs>
<linearGradient id="paint0_linear_1_266" x1="416.051" y1="130.105" x2="0.050602" y2="130.105" gradientUnits="userSpaceOnUse">
<stop stop-color="#38C1A5"/>
<stop offset="1" stop-color="#0891D5"/>
</linearGradient>
</defs>
</svg>
